<svg xmlns="http://www.w3.org/2000/svg" xmlns:xlink="http://www.w3.org/1999/xlink" width="45" height="45" viewBox="0 0 45 45">
  <defs>
    <clipPath id="clip-path">
      <path id="패스_7559" data-name="패스 7559" d="M22.5,0A22.5,22.5,0,1,1,0,22.5,22.5,22.5,0,0,1,22.5,0Z" transform="translate(1563 21)" fill="#e9f1fc"/>
    </clipPath>
  </defs>
  <g id="chatbot" transform="translate(-1563 -21)">
    <g id="그룹_23" data-name="그룹 23" clip-path="url(#clip-path)">
      <g id="그룹_4089" data-name="그룹 4089" transform="translate(0 0.575)">
        <path id="패스_7549" data-name="패스 7549" d="M-10.312-5.426H-8.3A3.469,3.469,0,0,0-12.047-8.6c-2.262,0-4.008,1.559-4.008,4.359S-14.344.117-12.047.117A3.548,3.548,0,0,0-8.3-2.953l-2.016-.012a1.586,1.586,0,0,1-1.7,1.324c-1.219,0-2-.891-2-2.6,0-1.652.768-2.607,2.016-2.6A1.563,1.563,0,0,1-10.312-5.426ZM-7.137,0h1.992V-3.434h3.41V0H.258V-8.484H-1.734v3.422h-3.41V-8.484H-7.137ZM3.3,0l.574-1.816H6.832L7.406,0H9.551L6.68-8.484H4.031L1.148,0ZM4.359-3.34,5.32-6.387h.07L6.352-3.34ZM9.105-6.855h2.578V0h1.98V-6.855h2.578V-8.484H9.105Z" transform="translate(1586 39.575)" fill="#0048f1"/>
        <path id="패스_7558" data-name="패스 7558" d="M42.706-868.275a2.609,2.609,0,0,1-1.917-.789A2.609,2.609,0,0,1,40-870.981a2.609,2.609,0,0,1,.789-1.917,2.609,2.609,0,0,1,1.917-.789v-1.8a1.737,1.737,0,0,1,.53-1.274,1.737,1.737,0,0,1,1.274-.53h2.706A2.609,2.609,0,0,1,48-879.211,2.609,2.609,0,0,1,49.921-880a2.609,2.609,0,0,1,1.917.789,2.609,2.609,0,0,1,.789,1.917h2.706a1.737,1.737,0,0,1,1.274.53,1.737,1.737,0,0,1,.53,1.274v1.8a2.609,2.609,0,0,1,1.917.789,2.609,2.609,0,0,1,.789,1.917,2.609,2.609,0,0,1-.789,1.917,2.609,2.609,0,0,1-1.917.789v3.608a1.737,1.737,0,0,1-.53,1.274,1.737,1.737,0,0,1-1.274.53H44.51a1.737,1.737,0,0,1-1.274-.53,1.737,1.737,0,0,1-.53-1.274Zm5.468-2.2a1.3,1.3,0,0,0,.395-.958,1.3,1.3,0,0,0-.395-.958,1.3,1.3,0,0,0-.958-.395,1.3,1.3,0,0,0-.958.395,1.3,1.3,0,0,0-.395.958,1.3,1.3,0,0,0,.395.958,1.3,1.3,0,0,0,.958.395A1.3,1.3,0,0,0,48.174-870.474Zm5.411,0a1.3,1.3,0,0,0,.395-.958,1.3,1.3,0,0,0-.395-.958,1.3,1.3,0,0,0-.958-.395,1.3,1.3,0,0,0-.958.395,1.3,1.3,0,0,0-.395.958,1.3,1.3,0,0,0,.395.958,1.3,1.3,0,0,0,.958.395A1.3,1.3,0,0,0,53.585-870.474Zm-9.075,5.806H55.332V-875.49H44.51ZM49.921-870.079Z" transform="translate(1535.474 931.023)" fill="#0048f1"/>
      </g>
    </g>
    <path id="패스_7560" data-name="패스 7560" d="M.645,0H4.418C6.3,0,7.359-1,7.359-2.367a1.975,1.975,0,0,0-1.91-2.051V-4.5A1.841,1.841,0,0,0,7.031-6.328c0-1.289-.979-2.156-2.883-2.156H.645ZM2.637-1.617V-3.68H3.984c.8-.006,1.289.422,1.289,1.09,0,.6-.416.973-1.324.973Zm0-3.363v-1.91H3.844c.709,0,1.148.363,1.148.938,0,.609-.492.967-1.172.973ZM16.3-4.242c.006-2.8-1.758-4.359-4.031-4.359S8.238-7.043,8.238-4.242C8.238-1.459,9.984.117,12.27.117S16.307-1.447,16.3-4.242Zm-6.023,0c0-1.687.756-2.607,1.992-2.6s2,.914,1.992,2.6-.75,2.6-1.992,2.6S10.277-2.555,10.277-4.242ZM16.8-6.855h2.578V0h1.98V-6.855h2.578V-8.484H16.8Z" transform="translate(1574 50)" fill="#0048f1"/>
  </g>
</svg>
