<svg xmlns="http://www.w3.org/2000/svg" width="45" height="45" viewBox="0 0 45 45">
  <g id="h_searach" transform="translate(-316 -155)">
    <circle id="타원_177" data-name="타원 177" cx="22.5" cy="22.5" r="22.5" transform="translate(316 155)" fill="none"/>
    <g id="h_search" transform="translate(329 168)">
      <path id="패스_7474" data-name="패스 7474" d="M448.126-863.747a7.836,7.836,0,0,1-5.756-2.37,7.837,7.837,0,0,1-2.37-5.756,7.837,7.837,0,0,1,2.37-5.756,7.836,7.836,0,0,1,5.756-2.37,7.837,7.837,0,0,1,5.756,2.37,7.837,7.837,0,0,1,2.37,5.756,7.235,7.235,0,0,1-.361,2.3,11.258,11.258,0,0,1-.9,2.031l4.515,4.515a1.712,1.712,0,0,1,.5,1.264,1.712,1.712,0,0,1-.5,1.264,1.712,1.712,0,0,1-1.264.5,1.712,1.712,0,0,1-1.264-.5l-4.515-4.515a11.271,11.271,0,0,1-2.032.9A7.236,7.236,0,0,1,448.126-863.747Zm3.205-4.921a4.36,4.36,0,0,0,1.309-3.205,4.36,4.36,0,0,0-1.309-3.205,4.359,4.359,0,0,0-3.205-1.309,4.359,4.359,0,0,0-3.205,1.309,4.359,4.359,0,0,0-1.309,3.205,4.359,4.359,0,0,0,1.309,3.205,4.359,4.359,0,0,0,3.205,1.309A4.359,4.359,0,0,0,451.332-868.668Z" transform="translate(-440 880)" fill="#0048f1"/>
    </g>
  </g>
</svg>
