<svg xmlns="http://www.w3.org/2000/svg" width="16.079" height="18.759" viewBox="0 0 16.079 18.759">
  <g id="cs_icon" transform="translate(-1494.603 -4792.621)">
    <g id="그룹_3676" data-name="그룹 3676">
      <g id="그룹_3675" data-name="그룹 3675" transform="translate(0 -37)">
        <path id="패스_7459" data-name="패스 7459" d="M121.787-863.921a1.72,1.72,0,0,1-1.262-.525,1.72,1.72,0,0,1-.525-1.262v-6.253a7.723,7.723,0,0,1,.636-3.115,8.212,8.212,0,0,1,1.731-2.557,8.214,8.214,0,0,1,2.557-1.731A7.723,7.723,0,0,1,128.04-880a7.723,7.723,0,0,1,3.115.636,8.214,8.214,0,0,1,2.557,1.731,8.212,8.212,0,0,1,1.731,2.557,7.723,7.723,0,0,1,.636,3.115v8.933a1.72,1.72,0,0,1-.525,1.262,1.72,1.72,0,0,1-1.262.525h-5.36a.864.864,0,0,1-.636-.257.864.864,0,0,1-.257-.636.865.865,0,0,1,.257-.637.864.864,0,0,1,.636-.257h5.36v-.893h-1.787a1.72,1.72,0,0,1-1.262-.525,1.72,1.72,0,0,1-.525-1.262v-3.573a1.721,1.721,0,0,1,.525-1.262,1.72,1.72,0,0,1,1.262-.525h1.787v-.893a6.025,6.025,0,0,0-1.831-4.422,6.025,6.025,0,0,0-4.422-1.831,6.025,6.025,0,0,0-4.422,1.831,6.025,6.025,0,0,0-1.831,4.422v.893h1.787a1.72,1.72,0,0,1,1.262.525,1.721,1.721,0,0,1,.525,1.262v3.573a1.72,1.72,0,0,1-.525,1.262,1.72,1.72,0,0,1-1.262.525Z" transform="translate(1374.603 5709.621)" fill="#1f1f1f"/>
      </g>
    </g>
  </g>
</svg>
