<svg xmlns="http://www.w3.org/2000/svg" width="16" height="14.578" viewBox="0 0 16 14.578">
  <g id="mygarage" transform="translate(-6191.984 7515.785)">
    <path id="패스_8169" data-name="패스 8169" d="M147.649-805.337a1,1,0,0,0,.734-.3,1,1,0,0,0,.3-.734,1,1,0,0,0-.3-.734,1,1,0,0,0-.734-.3,1,1,0,0,0-.734.3,1,1,0,0,0-.3.734,1,1,0,0,0,.3.734A1,1,0,0,0,147.649-805.337Zm7.254,0a1,1,0,0,0,.734-.3,1,1,0,0,0,.3-.734,1,1,0,0,0-.3-.734,1,1,0,0,0-.734-.3,1,1,0,0,0-.734.3,1,1,0,0,0-.3.734,1,1,0,0,0,.3.734A1,1,0,0,0,154.9-805.337Zm-10.385,3.886a.5.5,0,0,1-.369-.149.5.5,0,0,1-.149-.369v-6.438a1.08,1.08,0,0,1,.043-.3q.043-.151.086-.281l1.554-3.929a1.509,1.509,0,0,1,.572-.7,1.545,1.545,0,0,1,.884-.27H151.6a.767.767,0,0,1,.561.237.724.724,0,0,1,.216.583.77.77,0,0,1-.248.518.743.743,0,0,1-.529.216H147.13l-1.036,2.591H153.5a5.409,5.409,0,0,0,1.58,1.133,4.328,4.328,0,0,0,1.875.421h.32a1.353,1.353,0,0,0,.328-.043.879.879,0,0,1,.637.15.628.628,0,0,1,.27.54v5.57a.5.5,0,0,1-.149.369.5.5,0,0,1-.369.149h-1.036a.5.5,0,0,1-.369-.149.5.5,0,0,1-.149-.369V-803H146.073v1.036a.5.5,0,0,1-.149.369.5.5,0,0,1-.369.149Z" transform="translate(6047.984 -6699.756)" fill="#000004"/>
    <path id="패스_8170" data-name="패스 8170" d="M98.98-834.468a.584.584,0,0,1-.2-.12l-.49-.449a20.643,20.643,0,0,1-1.6-1.575A2.453,2.453,0,0,1,96-838.288a1.644,1.644,0,0,1,.5-1.222,1.7,1.7,0,0,1,1.239-.49,1.855,1.855,0,0,1,.8.179,1.878,1.878,0,0,1,.653.511,2.073,2.073,0,0,1,.661-.511,1.8,1.8,0,0,1,.794-.179,1.7,1.7,0,0,1,1.239.49,1.644,1.644,0,0,1,.5,1.222,2.453,2.453,0,0,1-.694,1.675,20.642,20.642,0,0,1-1.6,1.575l-.49.449a.584.584,0,0,1-.2.12.621.621,0,0,1-.212.037A.621.621,0,0,1,98.98-834.468Z" transform="translate(6105.6 -6675.785)" fill="#000004"/>
  </g>
</svg>
