<svg xmlns="http://www.w3.org/2000/svg" xmlns:xlink="http://www.w3.org/1999/xlink" width="150.338" height="45.654" viewBox="0 0 150.338 45.654">
  <defs>
    <clipPath id="clip-path">
      <rect id="사각형_1248" data-name="사각형 1248" width="150.338" height="45.654" fill="#0048f1"/>
    </clipPath>
  </defs>
  <g id="logo_blue" transform="translate(0 0.001)">
    <path id="패스_5903" data-name="패스 5903" d="M56.453,31.926H74.79v8.542h6.536V25.39H56.453Z" transform="translate(-48.347 -21.745)" fill="#2dbcff"/>
    <path id="패스_5904" data-name="패스 5904" d="M449.6,52.216h6.536v-8.25h5.088V37.43h-5.088v-5.5h5.088V25.39H449.6Z" transform="translate(-390.369 -21.745)" fill="#2dbcff"/>
    <path id="패스_5905" data-name="패스 5905" d="M1052.9,25.39V52.216h6.536V31.926h5.088V25.39Z" transform="translate(-914.19 -21.745)" fill="#2dbcff"/>
    <rect id="사각형_1245" data-name="사각형 1245" width="32.979" height="6.536" transform="translate(0 21.823)" fill="#2dbcff"/>
    <rect id="사각형_1246" data-name="사각형 1246" width="6.536" height="26.826" transform="translate(99.223 3.645)" fill="#2dbcff"/>
    <path id="패스_5906" data-name="패스 5906" d="M844.051,0V3.643H833.835v6.536l13.476.006L833.442,24.057l4.624,4.624,9.255-9.255,9.255,9.255,4.624-4.624L847.331,10.185l13.473-.006V3.643H850.587V0Z" transform="translate(-726.239)" fill="#2dbcff"/>
    <path id="패스_5907" data-name="패스 5907" d="M281.734,25.416H275.2V52.238h20.236V46.849h-13.7Z" transform="translate(-239.139 -21.767)" fill="#2dbcff"/>
    <g id="그룹_3570" data-name="그룹 3570" transform="translate(0 -0.001)">
      <g id="그룹_3569" data-name="그룹 3569" clip-path="url(#clip-path)">
        <path id="패스_5908" data-name="패스 5908" d="M568.7,21.358a11.117,11.117,0,1,0,11.113,11.113A11.12,11.12,0,0,0,568.7,21.358m0,16.2a5.081,5.081,0,1,1,5.077-5.085,5.087,5.087,0,0,1-5.077,5.085" transform="translate(-483.652 -18.526)" fill="#2dbcff"/>
        <path id="패스_5909" data-name="패스 5909" d="M495.021,213.269a3.552,3.552,0,1,1,3.024-5.407l5.135-3.144a9.563,9.563,0,1,0,0,9.987l-5.135-3.144a3.531,3.531,0,0,1-3.024,1.708" transform="translate(-421.091 -173.621)" fill="#0048f1"/>
        <path id="패스_5910" data-name="패스 5910" d="M612.821,255.514a2.557,2.557,0,1,1-2.557-2.557,2.557,2.557,0,0,1,2.557,2.557" transform="translate(-527.131 -219.418)" fill="#2dbcff"/>
        <path id="패스_5911" data-name="패스 5911" d="M18.449,254.95v2.944H16.281v-2.93h.578v1.063h1.011V254.95Zm-.578,1.552H16.859v.917h1.011ZM19.8,258.92h-.578v-4.36H19.8Z" transform="translate(-14.122 -220.808)" fill="#0048f1"/>
        <path id="패스_5912" data-name="패스 5912" d="M46.536,260.662v-.475h.87v-1.448h.583v1.448h.5v-1.448h.583v1.448H50.6v.475Zm.517-3.442h3.019v.419q0,.174-.019.435t-.049.543q-.031.282-.073.548t-.089.449l-.56-.108a3.422,3.422,0,0,0,.078-.4q.035-.242.064-.5t.045-.5q.017-.238.016-.383v-.037H47.053Z" transform="translate(-40.366 -223.115)" fill="#0048f1"/>
        <path id="패스_5913" data-name="패스 5913" d="M88.388,257.152h4.063v.475H88.388Zm.348-1.669h1.51v.089q0,.155-.012.331t-.038.36q-.026.183-.061.367t-.078.353l-.569-.108q.056-.226.1-.461t.059-.461h-.908Zm3.207,4.237H88.929v-1.8h3v.466H89.493v.2h2.4v.466h-2.4v.211h2.45Zm-1.5-4.237H91.99v.089q0,.155-.012.331t-.038.36q-.026.183-.061.367t-.078.353l-.569-.108q.056-.226.1-.461t.059-.461h-.95Z" transform="translate(-76.669 -221.609)" fill="#0048f1"/>
        <path id="패스_5914" data-name="패스 5914" d="M122.768,257.979a.9.9,0,0,1-.494-.127.969.969,0,0,1-.32-.341,1.556,1.556,0,0,1-.174-.491,3.261,3.261,0,0,1,0-1.157,1.556,1.556,0,0,1,.174-.491.968.968,0,0,1,.32-.341.9.9,0,0,1,.494-.127.928.928,0,0,1,.449.1.886.886,0,0,1,.308.278,1.366,1.366,0,0,1,.188.409,2.461,2.461,0,0,1,.085.491h.334v-1.528h.564v4.063h-.564v-2.06H123.8a2.494,2.494,0,0,1-.078.508,1.372,1.372,0,0,1-.186.421.907.907,0,0,1-.311.287.918.918,0,0,1-.456.106m0-.494a.309.309,0,0,0,.221-.085.576.576,0,0,0,.141-.228,1.551,1.551,0,0,0,.075-.334,3.379,3.379,0,0,0,0-.795,1.558,1.558,0,0,0-.075-.334.58.58,0,0,0-.141-.228.331.331,0,0,0-.442,0,.579.579,0,0,0-.141.228,1.551,1.551,0,0,0-.075.334,3.362,3.362,0,0,0,0,.795,1.544,1.544,0,0,0,.075.334.576.576,0,0,0,.141.228.309.309,0,0,0,.221.085m2.2-2.925h.569v4.374h-.569Z" transform="translate(-105.589 -220.808)" fill="#0048f1"/>
        <path id="패스_5915" data-name="패스 5915" d="M165.218,255.383v.475h-.842a.926.926,0,0,0,.153.289,1.233,1.233,0,0,0,.233.228,1.668,1.668,0,0,0,.285.172,2.11,2.11,0,0,0,.313.12l-.268.423a1.772,1.772,0,0,1-.55-.254,1.852,1.852,0,0,1-.489-.5,1.975,1.975,0,0,1-.482.531,2.583,2.583,0,0,1-.642.357l-.268-.4a2.476,2.476,0,0,0,.677-.4,1.138,1.138,0,0,0,.367-.572h-.86v-.475Zm-1.928,1.97h2.991v.466h-1.133a.89.89,0,0,0,.228.285,1.478,1.478,0,0,0,.339.212,2.249,2.249,0,0,0,.4.139,2.9,2.9,0,0,0,.426.07l-.2.461a2.945,2.945,0,0,1-.447-.082,2.566,2.566,0,0,1-.423-.153,2.227,2.227,0,0,1-.379-.223,1.662,1.662,0,0,1-.313-.3,1.7,1.7,0,0,1-.31.3,2.154,2.154,0,0,1-.376.223,2.574,2.574,0,0,1-.423.153,2.942,2.942,0,0,1-.447.082l-.2-.461a2.9,2.9,0,0,0,.426-.07,2.185,2.185,0,0,0,.4-.139,1.5,1.5,0,0,0,.336-.212.9.9,0,0,0,.228-.285H163.29Zm1.458-2.187h-1.434v-.475h1.434Zm1.51.4h.668v.475h-.668v1.119h-.578V254.56h.578Z" transform="translate(-141.093 -220.808)" fill="#0048f1"/>
        <path id="패스_5916" data-name="패스 5916" d="M195.117,257.072h4.063v.475h-4.063Zm3.607-1.2a.768.768,0,0,1-.4.672,2.805,2.805,0,0,1-2.333,0,.759.759,0,0,1,0-1.343,2.835,2.835,0,0,1,2.335,0,.763.763,0,0,1,.4.67m-3.066,3.386V257.89h.583v.893h2.417v.475Zm1.5-3.847a1.767,1.767,0,0,0-.736.12.373.373,0,0,0-.252.341.379.379,0,0,0,.252.341,2.228,2.228,0,0,0,1.469,0,.379.379,0,0,0,.249-.341.373.373,0,0,0-.249-.341,1.751,1.751,0,0,0-.734-.12" transform="translate(-169.247 -221.147)" fill="#0048f1"/>
        <path id="패스_5917" data-name="패스 5917" d="M239.248,255.947h-2.173v-.48h2.173Zm-2.046,1.213a1.28,1.28,0,0,1,.063-.407.935.935,0,0,1,.183-.327.855.855,0,0,1,.3-.216,1,1,0,0,1,.414-.08,1.032,1.032,0,0,1,.414.078.844.844,0,0,1,.3.216.919.919,0,0,1,.184.327,1.4,1.4,0,0,1,0,.818.916.916,0,0,1-.184.327.843.843,0,0,1-.3.216,1.029,1.029,0,0,1-.414.078,1,1,0,0,1-.414-.08.858.858,0,0,1-.3-.216.939.939,0,0,1-.183-.325,1.271,1.271,0,0,1-.063-.409m1.622-1.9H237.5v-.48h1.326Zm-.273,1.9a.741.741,0,0,0-.1-.4.36.36,0,0,0-.586,0,.719.719,0,0,0-.1.4.742.742,0,0,0,.1.407.358.358,0,0,0,.586,0,.742.742,0,0,0,.1-.4m1.477-.978h.32V254.56h.569v4.374h-.569v-2.276h-.32v2.06h-.564v-4.063h.564Z" transform="translate(-205.641 -220.808)" fill="#0048f1"/>
        <path id="패스_5918" data-name="패스 5918" d="M272.857,256.484a6.858,6.858,0,0,1-1.114.2q-.555.054-1.091.054h-.193V254.8h2.173v.48h-1.59v.988a7.946,7.946,0,0,0,.844-.066,7.162,7.162,0,0,0,.872-.169Zm-1.975,2.436v-1.848h.583v.475h1.749v-.475h.578v1.848Zm2.333-.908h-1.749v.442h1.749Zm.578-2.535h.668v.475h-.668v.931h-.578V254.56h.578Z" transform="translate(-234.599 -220.808)" fill="#0048f1"/>
        <path id="패스_5919" data-name="패스 5919" d="M302.368,280.375a1.026,1.026,0,0,1-.035.271.6.6,0,0,1-.12.23.733.733,0,0,1-.221.174,1.1,1.1,0,0,1-.339.106v-.395a.337.337,0,0,0,.2-.08.3.3,0,0,0,.089-.212h-.273v-.654h.7Z" transform="translate(-261.657 -242.714)" fill="#0048f1"/>
        <path id="패스_5920" data-name="패스 5920" d="M319.813,260.187h4.063v.475h-4.063Zm.517-2.967h3v.419q0,.23-.026.536t-.068.623q-.042.318-.094.607t-.1.487l-.569-.108q.042-.174.092-.444t.087-.562q.038-.291.063-.571t.026-.477v-.037H320.33Z" transform="translate(-277.409 -223.115)" fill="#0048f1"/>
        <path id="패스_5921" data-name="패스 5921" d="M355.26,256.582a6.825,6.825,0,0,1-1.143.214,11.068,11.068,0,0,1-1.11.059h-.287v-2.036h.583v1.557a7.037,7.037,0,0,0,.905-.063,7.569,7.569,0,0,0,.952-.186Zm-2.276,1.5a.724.724,0,0,1,.4-.647,2.969,2.969,0,0,1,2.328,0,.721.721,0,0,1,0,1.293,2.971,2.971,0,0,1-2.328,0,.724.724,0,0,1-.4-.647m2.553,0q0-.212-.261-.313a2.66,2.66,0,0,0-1.453,0q-.261.1-.261.313t.261.313a2.66,2.66,0,0,0,1.453,0q.261-.1.261-.313m.517-3h.668v.475h-.668v.513h.668v.475h-.668v.574h-.578V254.56h.578Z" transform="translate(-305.954 -220.808)" fill="#0048f1"/>
        <path id="패스_5922" data-name="패스 5922" d="M395.73,257.979a1.1,1.1,0,0,1-.529-.117,1.006,1.006,0,0,1-.36-.325,1.406,1.406,0,0,1-.2-.487,2.95,2.95,0,0,1,0-1.218,1.409,1.409,0,0,1,.2-.487,1.007,1.007,0,0,1,.36-.324,1.247,1.247,0,0,1,1.058,0,1,1,0,0,1,.36.324,1.406,1.406,0,0,1,.2.487,2.95,2.95,0,0,1,0,1.218,1.4,1.4,0,0,1-.2.487,1,1,0,0,1-.36.325,1.1,1.1,0,0,1-.529.117m0-.494a.46.46,0,0,0,.442-.282,2.2,2.2,0,0,0,0-1.524.487.487,0,0,0-.884,0,2.2,2.2,0,0,0,0,1.524.459.459,0,0,0,.442.282m2.412,1.434h-.578v-4.36h.578Z" transform="translate(-342.257 -220.808)" fill="#0048f1"/>
        <path id="패스_5923" data-name="패스 5923" d="M427.264,255.492v.48h-.893v.132a1.622,1.622,0,0,0,.28.955,2.093,2.093,0,0,0,.816.663l-.32.386a2.241,2.241,0,0,1-.606-.416,2.17,2.17,0,0,1-.466-.637,2.232,2.232,0,0,1-.487.665,2.4,2.4,0,0,1-.628.435l-.32-.386a2.457,2.457,0,0,0,.48-.306,1.939,1.939,0,0,0,.36-.386,1.672,1.672,0,0,0,.226-.459,1.708,1.708,0,0,0,.078-.515v-.132h-.894v-.48Zm-.47-.226h-1.434v-.48h1.434Zm1.51.913h.668v.48H428.3v2.262h-.578v-4.36h.578Z" transform="translate(-368.337 -220.809)" fill="#0048f1"/>
        <rect id="사각형_1247" data-name="사각형 1247" width="0.691" height="0.654" transform="translate(60.788 37.068)" fill="#0048f1"/>
        <path id="패스_5924" data-name="패스 5924" d="M672.457,252.882v.569H671.4v.028a1.161,1.161,0,0,0,.106.5,1.424,1.424,0,0,0,.276.4,1.71,1.71,0,0,0,.39.3,2.105,2.105,0,0,0,.455.189l-.318.5a1.964,1.964,0,0,1-.652-.312,2.356,2.356,0,0,1-.58-.6,2.5,2.5,0,0,1-.571.641,2.879,2.879,0,0,1-.76.435l-.318-.474a3.146,3.146,0,0,0,.527-.27,1.92,1.92,0,0,0,.4-.346,1.468,1.468,0,0,0,.259-.424,1.362,1.362,0,0,0,.092-.51v-.05h-1.065v-.569Zm-2.408,3.84a.858.858,0,0,1,.476-.767,3.522,3.522,0,0,1,2.759,0,.855.855,0,0,1,0,1.533,3.522,3.522,0,0,1-2.759,0,.857.857,0,0,1-.476-.766m3.026,0q0-.251-.309-.371a3.152,3.152,0,0,0-1.722,0q-.31.12-.309.371c0,.168.1.291.309.371a3.151,3.151,0,0,0,1.722,0c.206-.08.309-.2.309-.371m.613-2.976h.792v.563h-.792v1.271H673v-3.032h.685Z" transform="translate(-580.666 -219.062)" fill="#0048f1"/>
        <path id="패스_5925" data-name="패스 5925" d="M709.534,253.066H712v.189a3.713,3.713,0,0,1-.167,1.129,3.572,3.572,0,0,1-.477.97,3.9,3.9,0,0,1-.75.8,5.069,5.069,0,0,1-.992.624l-.34-.5a3.835,3.835,0,0,0,.774-.479,3.633,3.633,0,0,0,.622-.63,3.24,3.24,0,0,0,.427-.739,2.687,2.687,0,0,0,.195-.806h-1.756Zm4.068,4.648h-.685v-5.167h.685Z" transform="translate(-615.23 -219.062)" fill="#0048f1"/>
        <path id="패스_5926" data-name="패스 5926" d="M748.2,255.039q.357-.005.764-.047t.83-.12l.117.552a10.331,10.331,0,0,1-1.059.142q-.518.042-1,.042h-.34v-1.684h1.377v-.5H747.5v-.568h2.084v1.639H748.2Zm.039,2.619v-1.689h.691V257.1h3.015v.563Zm1.533-3.879h.4v-1.137h.669v3.751h-.669v-2.051h-.4Zm1.394-1.232h.668v3.9h-.668Z" transform="translate(-648.386 -219.062)" fill="#0048f1"/>
        <path id="패스_5927" data-name="패스 5927" d="M784.557,259.036h4.816v.563h-4.816Zm1.36-1.845v.6h2.837v.563h-3.528v-2.859H788.7v.563h-2.781v.574h2.725v.563Z" transform="translate(-680.533 -221.616)" fill="#0048f1"/>
        <path id="패스_5928" data-name="패스 5928" d="M821.569,255.89h4.815v.563h-4.815Zm.641,2.592V256.86h.691v1.059h2.865v.563Zm.056-3.066v-1.984h.691v1.421h2.815v.563Z" transform="translate(-712.638 -219.83)" fill="#0048f1"/>
        <path id="패스_5929" data-name="패스 5929" d="M871.173,259.218h4.816v.563h-4.816Zm.613-3.517h3.556v.5q0,.273-.031.636t-.081.738q-.05.376-.112.719t-.117.577l-.675-.128q.05-.207.109-.527t.1-.666q.045-.345.075-.677t.031-.566v-.044h-2.859Z" transform="translate(-755.665 -221.798)" fill="#0048f1"/>
        <path id="패스_5930" data-name="패스 5930" d="M913.186,254.944a8.063,8.063,0,0,1-1.354.254,13.028,13.028,0,0,1-1.315.07h-.34v-2.413h.691V254.7a8.311,8.311,0,0,0,1.073-.075,8.974,8.974,0,0,0,1.129-.22Zm-2.7,1.778a.858.858,0,0,1,.476-.766,3.522,3.522,0,0,1,2.759,0,.855.855,0,0,1,0,1.533,3.522,3.522,0,0,1-2.759,0,.858.858,0,0,1-.476-.766m3.026,0q0-.251-.309-.37a3.152,3.152,0,0,0-1.722,0q-.309.12-.309.37t.309.371a3.148,3.148,0,0,0,1.722,0q.31-.12.309-.371m.613-3.556h.792v.563h-.792v.608h.792v.563h-.792v.68h-.686v-3.032h.686Z" transform="translate(-789.497 -219.062)" fill="#0048f1"/>
        <path id="패스_5931" data-name="패스 5931" d="M950.577,256.6a1.308,1.308,0,0,1-.627-.139,1.194,1.194,0,0,1-.426-.385,1.674,1.674,0,0,1-.243-.577,3.5,3.5,0,0,1,0-1.443,1.678,1.678,0,0,1,.243-.577,1.19,1.19,0,0,1,.426-.384,1.477,1.477,0,0,1,1.254,0,1.191,1.191,0,0,1,.426.384,1.674,1.674,0,0,1,.243.577,3.506,3.506,0,0,1,0,1.443,1.67,1.67,0,0,1-.243.577,1.2,1.2,0,0,1-.426.385,1.307,1.307,0,0,1-.627.139m0-.585a.545.545,0,0,0,.524-.334,2.6,2.6,0,0,0,0-1.806.577.577,0,0,0-1.048,0,2.6,2.6,0,0,0,0,1.806.543.543,0,0,0,.524.334m2.859,1.7h-.685v-5.167h.685Z" transform="translate(-823.351 -219.062)" fill="#0048f1"/>
        <path id="패스_5932" data-name="패스 5932" d="M987.951,253.651v.569h-1.059v.156a1.924,1.924,0,0,0,.331,1.132,2.482,2.482,0,0,0,.967.786l-.38.457a2.646,2.646,0,0,1-.719-.493,2.578,2.578,0,0,1-.552-.755,2.654,2.654,0,0,1-.577.789,2.855,2.855,0,0,1-.745.516l-.379-.457a2.91,2.91,0,0,0,.568-.363,2.3,2.3,0,0,0,.427-.457,1.975,1.975,0,0,0,.268-.544,2.022,2.022,0,0,0,.092-.61v-.156h-1.059v-.569Zm-.557-.268h-1.7v-.569h1.7Zm1.79,1.082h.791v.568h-.791v2.681H988.5v-5.167h.686Z" transform="translate(-854.261 -219.062)" fill="#0048f1"/>
        <path id="패스_5933" data-name="패스 5933" d="M1027.41,256.6a1.06,1.06,0,0,1-.585-.151,1.144,1.144,0,0,1-.379-.4,1.839,1.839,0,0,1-.206-.582,3.881,3.881,0,0,1,0-1.371,1.84,1.84,0,0,1,.206-.582,1.149,1.149,0,0,1,.379-.4,1.06,1.06,0,0,1,.585-.151,1.1,1.1,0,0,1,.532.12,1.051,1.051,0,0,1,.365.329,1.615,1.615,0,0,1,.223.485,2.9,2.9,0,0,1,.1.582h.4v-1.812h.669v4.816h-.669v-2.441h-.4a2.923,2.923,0,0,1-.092.6,1.617,1.617,0,0,1-.22.5,1.066,1.066,0,0,1-.367.34,1.088,1.088,0,0,1-.541.125m0-.585a.364.364,0,0,0,.261-.1.687.687,0,0,0,.168-.27,1.859,1.859,0,0,0,.089-.4,4,4,0,0,0,0-.942,1.867,1.867,0,0,0-.089-.4.688.688,0,0,0-.168-.27.391.391,0,0,0-.524,0,.68.68,0,0,0-.167.27,1.8,1.8,0,0,0-.089.4,3.982,3.982,0,0,0,0,.942,1.793,1.793,0,0,0,.089.4.679.679,0,0,0,.167.27.365.365,0,0,0,.262.1m2.609-3.467h.675v5.184h-.675Z" transform="translate(-890.118 -219.062)" fill="#0048f1"/>
        <path id="패스_5934" data-name="패스 5934" d="M1066.655,256.572a3.739,3.739,0,0,1-.705-.608,3.372,3.372,0,0,1-.543-.791,3.926,3.926,0,0,1-1.3,1.455l-.407-.457a3.08,3.08,0,0,0,.995-.981,2.371,2.371,0,0,0,.365-1.282v-.942h.7v.942a2.362,2.362,0,0,0,.337,1.262,2.948,2.948,0,0,0,.967.945Zm.931-2.353v-1.672h.685v5.167h-.685v-2.926h-.976v-.569Z" transform="translate(-922.666 -219.062)" fill="#0048f1"/>
      </g>
    </g>
  </g>
</svg>
