<svg xmlns="http://www.w3.org/2000/svg" width="32" height="32" viewBox="0 0 32 32">
  <g id="home" transform="translate(-2545 -732.724)">
    <path id="패스_7996" data-name="패스 7996" d="M0,0H32V32H0Z" transform="translate(2545 732.724)" fill="#fff"/>
    <g id="그룹_5947" data-name="그룹 5947" transform="translate(2546.486 735.237)">
      <path id="패스_7996-2" data-name="패스 7996" d="M62.232-835.127a2.6,2.6,0,0,1-1.914-.8,2.642,2.642,0,0,1-.8-1.93v-10.075l-1.355,1.059a1.31,1.31,0,0,1-1,.273,1.246,1.246,0,0,1-.9-.547,1.254,1.254,0,0,1-.254-.991,1.347,1.347,0,0,1,.525-.888l12.194-9.426a2.793,2.793,0,0,1,.8-.41A2.8,2.8,0,0,1,70.4-859a2.645,2.645,0,0,1,.847.137,2.857,2.857,0,0,1,.779.41l10.128,7.821a.931.931,0,0,1,.322,1.23.965.965,0,0,1-1.1.649,7.173,7.173,0,0,0-1.778.017,7.741,7.741,0,0,0-1.778.461,7.385,7.385,0,0,0-4.183-.358,7.207,7.207,0,0,0-3.777,2.066A7.3,7.3,0,0,0,67.8-842.76a7.564,7.564,0,0,0,.356,4.218,10.148,10.148,0,0,0-.339,1.093,6.164,6.164,0,0,0-.169,1.127,1.364,1.364,0,0,1-.356.837,1.027,1.027,0,0,1-.8.359Z" transform="translate(-56 859)" fill="#2dbcff"/>
      <path id="패스_7997" data-name="패스 7997" d="M5.591,7.665A2.077,2.077,0,1,1,7.36,4.5l3-1.838a5.592,5.592,0,1,0,0,5.84l-3-1.838a2.065,2.065,0,0,1-1.768,1" transform="translate(23.439 26.975) rotate(-150)" fill="#0048f1"/>
      <path id="패스_7998" data-name="패스 7998" d="M2.99,1.5A1.5,1.5,0,1,1,1.5,0,1.495,1.495,0,0,1,2.99,1.5" transform="translate(16.425 17.94) rotate(-150)" fill="#2dbcff"/>
    </g>
  </g>
</svg>
