<svg xmlns="http://www.w3.org/2000/svg" xmlns:xlink="http://www.w3.org/1999/xlink" width="32" height="32" viewBox="0 0 32 32"><defs><clipPath id="a"><rect width="10.261" height="13.997" transform="translate(0 0)" fill="#6bff2d"/></clipPath></defs><g transform="translate(-1805 -483.397)"><rect width="32" height="32" transform="translate(1805 483.397)" fill="none"/><g transform="translate(3.422 -5.095)"><g transform="translate(1804.578 489.492)"><g transform="translate(13.728 3.77)"><path d="M491.182,208.007a2.126,2.126,0,1,1,1.81-3.236l3.074-1.882a5.724,5.724,0,1,0,0,5.978l-3.074-1.882a2.114,2.114,0,0,1-1.81,1.022" transform="translate(-485.458 -200.16)" fill="#0048f1"/></g><g transform="translate(10.314 0)"><g transform="translate(0 0)" clip-path="url(#a)"><path d="M9.264,5.5H6.27V1A1,1,0,0,0,4.443.45L.166,6.951A1,1,0,0,0,1,8.494H3.992V13a1,1,0,0,0,1.827.547l4.277-6.5A1,1,0,0,0,9.264,5.5" transform="translate(0 0)" fill="#6bff2d"/></g></g><path d="M97.719-859.242a1.9,1.9,0,0,0,1.395-.574,1.9,1.9,0,0,0,.574-1.395,1.9,1.9,0,0,0-.574-1.395,1.9,1.9,0,0,0-1.395-.574,1.9,1.9,0,0,0-1.395.574,1.9,1.9,0,0,0-.574,1.395,1.9,1.9,0,0,0,.574,1.395A1.9,1.9,0,0,0,97.719-859.242Zm-11.813,0a1.9,1.9,0,0,0,1.395-.574,1.9,1.9,0,0,0,.574-1.395,1.9,1.9,0,0,0-.574-1.395,1.9,1.9,0,0,0-1.395-.574,1.9,1.9,0,0,0-1.395.574,1.9,1.9,0,0,0-.574,1.395,1.9,1.9,0,0,0,.574,1.395A1.9,1.9,0,0,0,85.906-859.242Zm-3.938,6.563a1.9,1.9,0,0,1-1.395-.574A1.9,1.9,0,0,1,80-854.648v-9.385a3.243,3.243,0,0,1,.033-.459,2.441,2.441,0,0,1,.1-.427l2.625-7.448a1.86,1.86,0,0,1,.705-.952,1.911,1.911,0,0,1,1.132-.361h4.561c.372,0,.372,2.625,0,2.625h-4.1l-1.378,3.938h7.842a1.334,1.334,0,0,1,.574.131,1.263,1.263,0,0,1,.476.394,9.292,9.292,0,0,0,3.166,2.51,8.917,8.917,0,0,0,3.954.9,8.817,8.817,0,0,0,1.214-.082,9.075,9.075,0,0,0,1.181-.246,1.172,1.172,0,0,1,1.05.18,1.055,1.055,0,0,1,.492.9v7.777a1.9,1.9,0,0,1-.574,1.395,1.9,1.9,0,0,1-1.395.574,1.9,1.9,0,0,1-1.395-.574,1.9,1.9,0,0,1-.574-1.395v-.656H83.938v.656a1.9,1.9,0,0,1-.574,1.395A1.9,1.9,0,0,1,81.969-852.679Z" transform="translate(-80 881.179)" fill="#0048f1"/></g><circle cx="1.661" cy="1.661" r="1.661" transform="translate(1827.357 497.39)" fill="#2dbcff"/></g></g></svg>