<svg xmlns="http://www.w3.org/2000/svg" width="32" height="32" viewBox="0 0 32 32"><g transform="translate(-2190 -568)"><g transform="translate(1)"><rect width="32" height="32" transform="translate(2189 568)" fill="none"/><g transform="translate(382.803 -5.847)"><g transform="translate(1807.197 577.847)"><path d="M497.524,216.7a4.482,4.482,0,1,1,3.816-6.822l6.479-3.967a12.066,12.066,0,1,0,0,12.6l-6.479-3.967a4.456,4.456,0,0,1-3.816,2.155" transform="translate(-485.458 -200.16)" fill="#0048f1"/><path d="M614.159,256.183a3.226,3.226,0,1,1-3.226-3.226,3.226,3.226,0,0,1,3.226,3.226" transform="translate(-587.255 -244.124)" fill="#2dbcff"/></g><path d="M160-435.171v-.773a3.27,3.27,0,0,1,.351-1.509,2.583,2.583,0,0,1,.934-1.05,10.728,10.728,0,0,1,2.53-1.123,9.287,9.287,0,0,1,2.61-.374,9.287,9.287,0,0,1,2.61.374,10.728,10.728,0,0,1,2.53,1.123,2.583,2.583,0,0,1,.934,1.05,3.27,3.27,0,0,1,.351,1.509v.773a2.065,2.065,0,0,1-.472,1.364,1.43,1.43,0,0,1-1.134.567h-9.637a1.43,1.43,0,0,1-1.134-.567A2.065,2.065,0,0,1,160-435.171Z" transform="translate(1664.576 1034.204)" fill="#2dbcff"/></g></g></g></svg>