<svg xmlns="http://www.w3.org/2000/svg" width="32" height="32" viewBox="0 0 32 32"><g transform="translate(-2190 -407)"><g transform="translate(-3 13)"><rect width="32" height="32" transform="translate(2193 394)" fill="none"/><g transform="translate(389.701 -15.049)"><g transform="translate(8 12)"><path d="M-104.95,33.1a12.768,12.768,0,0,1-5.09-1.028,13.237,13.237,0,0,1-4.144-2.789,13.25,13.25,0,0,1-2.789-4.144A12.762,12.762,0,0,1-118,20.05a12.754,12.754,0,0,1,1.028-5.089,13.236,13.236,0,0,1,2.789-4.144,13.236,13.236,0,0,1,4.144-2.789A12.768,12.768,0,0,1-104.95,7a13.455,13.455,0,0,1,2.137.168A9.062,9.062,0,0,0-103,9c0,.261.011.526.034.785a11.052,11.052,0,0,0-1.984-.175,10.113,10.113,0,0,0-6.884,2.594,10.146,10.146,0,0,0-3.425,6.541h3.785l3.164-3.164a2.545,2.545,0,0,1,.832-.554,2.587,2.587,0,0,1,1-.2h3.066a2.587,2.587,0,0,1,1,.2,2.537,2.537,0,0,1,.832.554l3.165,3.164h3.785c-.032-.257-.073-.519-.123-.777.248.021.5.032.763.032a9.056,9.056,0,0,0,1.913-.2A13.411,13.411,0,0,1-91.9,20.05a12.777,12.777,0,0,1-1.028,5.09,13.249,13.249,0,0,1-2.789,4.144,13.25,13.25,0,0,1-4.144,2.789A12.777,12.777,0,0,1-104.95,33.1Zm6.4-11.746a6.391,6.391,0,0,1-1.762,3.328,6.391,6.391,0,0,1-3.328,1.762v3.915a9.945,9.945,0,0,0,6.085-2.92,9.945,9.945,0,0,0,2.92-6.085Zm-16.7,0a9.742,9.742,0,0,0,2.92,6.036,10.564,10.564,0,0,0,6.085,2.969V26.446a6.391,6.391,0,0,1-3.327-1.762,6.391,6.391,0,0,1-1.762-3.328h-3.915Z" transform="translate(1914 394)" fill="#0048f1"/><path d="M99.089-869.244a5.186,5.186,0,0,1-3.809-1.569,5.186,5.186,0,0,1-1.569-3.809,5.186,5.186,0,0,1,1.569-3.809A5.186,5.186,0,0,1,99.089-880a5.186,5.186,0,0,1,3.809,1.569,5.186,5.186,0,0,1,1.569,3.809,4.788,4.788,0,0,1-.239,1.524,7.453,7.453,0,0,1-.6,1.344l2.988,2.988a1.133,1.133,0,0,1,.329.837,1.133,1.133,0,0,1-.329.837,1.133,1.133,0,0,1-.837.329,1.133,1.133,0,0,1-.837-.329l-2.988-2.988a7.453,7.453,0,0,1-1.345.6A4.789,4.789,0,0,1,99.089-869.244Zm2.121-3.257a2.885,2.885,0,0,0,.866-2.121,2.885,2.885,0,0,0-.866-2.121,2.885,2.885,0,0,0-2.121-.867,2.885,2.885,0,0,0-2.121.867,2.885,2.885,0,0,0-.866,2.121,2.885,2.885,0,0,0,.866,2.121,2.885,2.885,0,0,0,2.121.866A2.885,2.885,0,0,0,101.211-872.5Z" transform="translate(1719.65 1278.996)" fill="#2dbcff"/></g><g transform="translate(1813.742 422.562)"><path d="M488.977,204.984a1.307,1.307,0,1,1,1.113-1.99l1.89-1.157a3.519,3.519,0,1,0,0,3.675l-1.89-1.157a1.3,1.3,0,0,1-1.113.629" transform="translate(-485.458 -200.16)" fill="#fff"/><path d="M609.589,253.9a.941.941,0,1,1-.941-.941.941.941,0,0,1,.941.941" transform="translate(-601.742 -250.381)" fill="#fff"/></g></g></g></g></svg>