<svg xmlns="http://www.w3.org/2000/svg" width="32" height="32" viewBox="0 0 32 32"><g transform="translate(-1804 -330.708)"><path d="M0,0H32V32H0Z" transform="translate(1804 330.708)" fill="none"/><g transform="translate(0.628 2.708)"><path d="M86.669-871.148l.826-2.361h8.616l.826,2.361Zm2.434,4.972a1.142,1.142,0,0,0,.339-.841,1.142,1.142,0,0,0-.339-.841,1.142,1.142,0,0,0-.841-.339,1.142,1.142,0,0,0-.841.339,1.142,1.142,0,0,0-.339.841,1.142,1.142,0,0,0,.339.841,1.142,1.142,0,0,0,.841.339A1.142,1.142,0,0,0,89.1-866.176Zm-6.742,9.781a2.273,2.273,0,0,1-1.667-.693A2.273,2.273,0,0,1,80-858.755v-18.884a2.273,2.273,0,0,1,.693-1.667A2.273,2.273,0,0,1,82.361-880h18.884a2.273,2.273,0,0,1,1.667.693,2.273,2.273,0,0,1,.693,1.667v8.026a.93.93,0,0,1-.5.87,1.045,1.045,0,0,1-1.033.015q-.5-.207-.988-.354a5.657,5.657,0,0,0-1.018-.207l-1.947-5.636a1.473,1.473,0,0,0-.487-.679,1.192,1.192,0,0,0-.752-.266H86.728a1.192,1.192,0,0,0-.752.266,1.473,1.473,0,0,0-.487.679l-1.829,5.282a2.241,2.241,0,0,0-.089.369,2.617,2.617,0,0,0-.029.4v7.406a.919.919,0,0,0,.266.679.919.919,0,0,0,.679.266h.472a.919.919,0,0,0,.679-.266.919.919,0,0,0,.266-.679v-1.416h4.928q-.089.413-.148.856a6.915,6.915,0,0,0-.059.915,7.545,7.545,0,0,0,.192,1.711,9.725,9.725,0,0,0,.516,1.593.954.954,0,0,1-.044.959.873.873,0,0,1-.782.457Z" transform="translate(1726.422 1211)" fill="#0048f1"/><g transform="translate(1819.02 343.655)"><path d="M492,209.135a2.432,2.432,0,1,1,2.071-3.7l3.516-2.153a6.547,6.547,0,1,0,0,6.838l-3.516-2.153A2.418,2.418,0,0,1,492,209.135" transform="translate(-485.458 -200.16)" fill="#0048f1"/><path d="M611.208,254.708a1.751,1.751,0,1,1-1.751-1.751,1.751,1.751,0,0,1,1.751,1.751" transform="translate(-596.609 -248.164)" fill="#2dbcff"/></g></g></g></svg>