<svg xmlns="http://www.w3.org/2000/svg" width="32" height="32" viewBox="0 0 32 32">
  <g id="quick_01" transform="translate(-1804 -330.708)">
    <path id="패스_7469" data-name="패스 7469" d="M0,0H32V32H0Z" transform="translate(1804 330.708)" fill="none"/>
    <g id="그룹_3703" data-name="그룹 3703" transform="translate(-1.365 2.708)">
      <g id="그룹_3687" data-name="그룹 3687" transform="translate(1807.837 329.112)">
        <path id="패스_5941" data-name="패스 5941" d="M497.551,216.739a4.492,4.492,0,1,1,3.825-6.838l6.494-3.976a12.094,12.094,0,1,0,0,12.63l-6.494-3.976a4.466,4.466,0,0,1-3.825,2.16" transform="translate(-485.458 -200.16)" fill="#0048f1"/>
      </g>
    </g>
    <path id="패스_7547" data-name="패스 7547" d="M84.49-955.617a2.444,2.444,0,0,0,.767-1.817,2.444,2.444,0,0,0-.767-1.817A2.566,2.566,0,0,0,82.628-960a2.565,2.565,0,0,0-1.862.748A2.444,2.444,0,0,0,80-957.435a2.444,2.444,0,0,0,.767,1.817,2.566,2.566,0,0,0,1.862.748A2.566,2.566,0,0,0,84.49-955.617Zm9.527,11.011,2.015,1.967a.813.813,0,0,0,.953.182.805.805,0,0,0,.537-.8v-13.319a1.628,1.628,0,0,0-.515-1.208,1.708,1.708,0,0,0-1.237-.5H87.8a.746.746,0,0,0-.58.256.788.788,0,0,0-.208.6,4.012,4.012,0,0,1-.427,1.817,4.421,4.421,0,0,1-1.194,1.475,4.753,4.753,0,0,1-1.281.716,4.173,4.173,0,0,1-1.478.267,4.878,4.878,0,0,1-.788-.064,3.578,3.578,0,0,1-.767-.214.808.808,0,0,0-.723.043.605.605,0,0,0-.35.556v6.521a1.628,1.628,0,0,0,.515,1.208,1.708,1.708,0,0,0,1.237.5Z" transform="translate(1736.007 1301.504)" fill="#2dbcff"/>
    <line id="선_349" data-name="선 349" x2="3.363" transform="translate(1826.137 348.315)" fill="none" stroke="#fff" stroke-linecap="round" stroke-width="2"/>
    <line id="선_350" data-name="선 350" x2="8.637" transform="translate(1821.449 352.315)" fill="none" stroke="#fff" stroke-linecap="round" stroke-width="2"/>
  </g>
</svg>
