<svg xmlns="http://www.w3.org/2000/svg" width="34" height="34" viewBox="0 0 34 34">
  <g id="footer_you" transform="translate(-399.397 -424)">
    <circle id="타원_139" data-name="타원 139" cx="17" cy="17" r="17" transform="translate(399.397 424)" fill="#000004" opacity="0.77"/>
    <path id="패스_7456" data-name="패스 7456" d="M32.821,66.014A2.3,2.3,0,0,0,31.2,64.385,54.289,54.289,0,0,0,24.051,64a54.289,54.289,0,0,0-7.151.385,2.3,2.3,0,0,0-1.618,1.629,25.916,25.916,0,0,0,0,8.867,2.262,2.262,0,0,0,1.618,1.6,54.292,54.292,0,0,0,7.151.385,54.292,54.292,0,0,0,7.151-.385,2.268,2.268,0,0,0,1.618-1.6,25.916,25.916,0,0,0,0-8.867Z" transform="translate(392.981 370.525)" fill="none" stroke="#fff" stroke-width="1.5"/>
    <path id="다각형_6" data-name="다각형 6" d="M2.361.934a.5.5,0,0,1,.9,0l2.016,4.18a.5.5,0,0,1-.45.717H.8a.5.5,0,0,1-.45-.717Z" transform="translate(420.899 438.212) rotate(90)" fill="#fff"/>
  </g>
</svg>
