<svg xmlns="http://www.w3.org/2000/svg" width="34" height="34" viewBox="0 0 34 34">
  <g id="footer_na" transform="translate(-355.397 -424)">
    <circle id="타원_138" data-name="타원 138" cx="17" cy="17" r="17" transform="translate(355.397 424)" fill="#000004" opacity="0.77"/>
    <g id="그룹_3410" data-name="그룹 3410" transform="translate(-1116.603 -5213)">
      <path id="사각형_1467" data-name="사각형 1467" d="M5,1A4,4,0,0,0,1,5v6a4,4,0,0,0,4,4h6a4,4,0,0,0,4-4V5a4,4,0,0,0-4-4H5M5,0h6a5,5,0,0,1,5,5v6a5,5,0,0,1-5,5H5a5,5,0,0,1-5-5V5A5,5,0,0,1,5,0Z" transform="translate(1480.742 5645.961)" fill="#fff" stroke="#fff" stroke-width="0.5"/>
      <path id="패스_7455" data-name="패스 7455" d="M1.12,2.088H2.793L5.2,5.973V2.088H6.87V8.5H5.2l-2.4-3.957V8.5H1.12Z" transform="translate(1484.678 5648.731)" fill="#fff" stroke="#fff" stroke-width="0.5"/>
    </g>
  </g>
</svg>
