<svg id="그룹_102" data-name="그룹 102" xmlns="http://www.w3.org/2000/svg" width="19.295" height="17.818" viewBox="0 0 19.295 17.818">
  <g id="그룹_103" data-name="그룹 103">
    <path id="패스_92" data-name="패스 92" d="M-24.73,58.107c-5.328,0-9.647,3.411-9.647,7.62,0,2.706,1.789,5.077,4.477,6.433l-.911,3.393a.283.283,0,0,0,.069.289.277.277,0,0,0,.2.081.276.276,0,0,0,.167-.065l3.91-2.639a12.224,12.224,0,0,0,1.737.127c5.327,0,9.649-3.411,9.649-7.62S-19.4,58.107-24.73,58.107Zm-5.153,10.03a.586.586,0,0,1-.151.419.535.535,0,0,1-.407.158A.563.563,0,0,1-30.8,68.6a.518.518,0,0,1-.187-.314.639.639,0,0,1-.009-.148l0-3.618h-1.05a.692.692,0,0,1-.373-.1.413.413,0,0,1-.193-.281c-.006-.033-.011-.07-.015-.108a.424.424,0,0,1,.165-.356.649.649,0,0,1,.413-.13h3.21a.681.681,0,0,1,.372.1.415.415,0,0,1,.195.282.5.5,0,0,1,.007.105.435.435,0,0,1-.161.362.645.645,0,0,1-.41.127h-1.05Zm4.588.43a.505.505,0,0,1-.369.147.473.473,0,0,1-.5-.317l-.287-.846h-1.788l-.288.846a.465.465,0,0,1-.5.317.519.519,0,0,1-.329-.1.461.461,0,0,1-.17-.286.6.6,0,0,1-.01-.118.671.671,0,0,1,.03-.2c.021-.079.047-.161.076-.239l1.436-3.958a.493.493,0,0,1,.2-.271.637.637,0,0,1,.34-.081h.267a.69.69,0,0,1,.363.089.579.579,0,0,1,.231.335l1.34,3.887a2.275,2.275,0,0,1,.091.31,1.337,1.337,0,0,1,.02.133A.486.486,0,0,1-25.295,68.566Zm3.711-.07a.663.663,0,0,1-.414.127h-2.317a.729.729,0,0,1-.417-.106.51.51,0,0,1-.211-.343,1.579,1.579,0,0,1-.024-.228l0-3.916a.583.583,0,0,1,.151-.418.531.531,0,0,1,.407-.159.554.554,0,0,1,.356.115.531.531,0,0,1,.185.315.533.533,0,0,1,.009.146V67.65H-22a.673.673,0,0,1,.375.1.421.421,0,0,1,.189.282.654.654,0,0,1,.016.106A.43.43,0,0,1-21.584,68.5Zm4.172.088a.639.639,0,0,1-.4.13.552.552,0,0,1-.277-.061.727.727,0,0,1-.218-.241l-1.279-2.06-.61.635.006,1.151a.6.6,0,0,1-.152.419.541.541,0,0,1-.408.158.568.568,0,0,1-.356-.114.526.526,0,0,1-.186-.314.7.7,0,0,1-.009-.148l0-4.106a.592.592,0,0,1,.151-.418.532.532,0,0,1,.407-.159.552.552,0,0,1,.355.115.522.522,0,0,1,.186.315.577.577,0,0,1,.011.146l0,1.682,1.744-2.006a1.248,1.248,0,0,1,.212-.192.415.415,0,0,1,.231-.062.568.568,0,0,1,.333.1.416.416,0,0,1,.184.271l.008.043a.169.169,0,0,0,0,.047.451.451,0,0,1-.052.211,1.083,1.083,0,0,1-.132.185L-18.8,65.56l1.35,2.139.041.065a1.158,1.158,0,0,1,.16.323l.008.034a.2.2,0,0,0,0,.036A.507.507,0,0,1-17.412,68.584Z" transform="translate(34.377 -58.107)" fill="#391f1f"/>
    <path id="패스_93" data-name="패스 93" d="M-27.586,64.515l-.589,1.655H-27l-.568-1.655Z" transform="translate(34.512 -57.753)" fill="#391f1f"/>
  </g>
</svg>
