<?xml version="1.0" encoding="utf-8"?>
<!-- Generator: Adobe Illustrator 23.0.6, SVG Export Plug-In . SVG Version: 6.00 Build 0)  -->
<svg version="1.1" id="그룹_102" xmlns="http://www.w3.org/2000/svg" xmlns:xlink="http://www.w3.org/1999/xlink" x="0px" y="0px"
	 viewBox="0 0 24 24" style="enable-background:new 0 0 24 24;" xml:space="preserve">
<style type="text/css">
	.st0{fill:#555555;}
</style>
<title>대지 1</title>
<g id="그룹_103">
	<path id="패스_92" class="st0" d="M12,1.8c-6.1,0-11,3.9-11,8.7c0.2,3.2,2.1,6.1,5.1,7.3l-1,3.8C5,21.8,5,22,5.1,22
		c0.1,0.1,0.1,0.1,0.2,0.1c0.1,0,0.1,0,0.2-0.1l4.5-3c0.7,0.1,1.3,0.1,2,0.1c6.1,0,11-3.9,11-8.7S18.1,1.8,12,1.8z M6.1,13.3
		c0,0.3-0.2,0.6-0.6,0.7c0,0-0.1,0-0.1,0c-0.1,0-0.3,0-0.4-0.1c-0.1-0.1-0.2-0.2-0.2-0.4c0,0,0-0.1,0-0.1V9.2H3.6
		c-0.2,0-0.3,0-0.4-0.1C3.1,9,3,8.9,3,8.7c0,0,0-0.1,0-0.1C3,8.4,3,8.3,3.2,8.2c0.1-0.1,0.3-0.2,0.5-0.2h3.7c0.1,0,0.3,0.1,0.4,0.2
		C7.8,8.3,7.9,8.4,8,8.5c0,0,0,0.1,0,0.1C8,8.8,7.9,9,7.8,9.1C7.6,9.1,7.5,9.2,7.4,9.1H6.1V13.3z M11.3,13.8
		c-0.1,0.1-0.3,0.2-0.4,0.2c-0.3,0-0.5-0.1-0.6-0.4l-0.3-1H8l-0.3,1C7.6,13.9,7.3,14,7.1,14c-0.1,0-0.3,0-0.4-0.1
		c-0.2-0.1-0.2-0.3-0.2-0.5c0-0.1,0-0.2,0-0.2c0-0.1,0-0.2,0.1-0.3l1.7-4.5c0-0.1,0.1-0.2,0.2-0.3C8.6,8,8.7,7.9,8.9,7.9h0.3
		c0.1,0,0.3,0,0.4,0.1c0.1,0.1,0.2,0.2,0.3,0.4l1.5,4.4c0,0.1,0.1,0.2,0.1,0.3c0,0,0,0.1,0,0.2C11.5,13.5,11.4,13.7,11.3,13.8
		L11.3,13.8z M15.6,13.7c-0.1,0.1-0.3,0.2-0.5,0.1h-2.6c-0.2,0-0.3,0-0.5-0.1c-0.1-0.1-0.2-0.3-0.2-0.4c0-0.1,0-0.2,0-0.3V8.6
		c0-0.2,0.1-0.3,0.2-0.5C12,8,12.2,7.9,12.4,7.9c0.3,0,0.6,0.2,0.6,0.5c0,0.1,0,0.1,0,0.2v4.1h2.1c0.1,0,0.3,0,0.4,0.1
		c0.1,0.1,0.2,0.2,0.2,0.3c0,0,0,0.1,0,0.1C15.8,13.4,15.7,13.6,15.6,13.7L15.6,13.7z M20.3,13.8C20.2,13.9,20,14,19.9,14
		c-0.1,0-0.2,0-0.3-0.1c-0.1-0.1-0.2-0.2-0.3-0.3l-1.4-2.4L17.2,12v1.4c0,0.2-0.1,0.3-0.2,0.5c-0.1,0.1-0.3,0.2-0.5,0.2
		c-0.1,0-0.3,0-0.4-0.1c-0.1-0.1-0.2-0.2-0.2-0.4c0-0.1,0-0.1,0-0.2V8.6c0-0.2,0.1-0.3,0.2-0.5c0.1-0.1,0.3-0.2,0.5-0.2
		c0.1,0,0.3,0,0.4,0.1c0.1,0.1,0.2,0.2,0.2,0.4c0,0.1,0,0.1,0,0.2v1.9l2-2.3c0.1-0.1,0.2-0.2,0.2-0.2c0.1,0,0.2,0,0.3,0
		c0.1,0,0.3,0,0.4,0.1c0.1,0.1,0.2,0.2,0.2,0.3v0.1c0,0.1,0,0.2,0,0.2c0,0.1-0.1,0.2-0.2,0.2l-1.3,1.4l1.5,2.4v0.1
		c0.1,0.1,0.1,0.2,0.2,0.4v0C20.6,13.5,20.5,13.7,20.3,13.8L20.3,13.8z"/>
	<path id="패스_93" class="st0" d="M8.9,9.6l-0.7,1.9h1.3L8.9,9.6L8.9,9.6z"/>
</g>
</svg>
