<svg xmlns="http://www.w3.org/2000/svg" width="20" height="20" viewBox="0 0 20 20">
  <g id="option" transform="translate(-693 -2063)">
    <rect id="사각형_2642" data-name="사각형 2642" width="20" height="20" transform="translate(693 2063)" fill="none"/>
    <path id="option_icon" d="M40.843-713.671A2.762,2.762,0,0,1,40-715.7a2.762,2.762,0,0,1,.843-2.026,2.762,2.762,0,0,1,2.026-.843,2.762,2.762,0,0,1,2.026.843,2.762,2.762,0,0,1,.843,2.026,2.762,2.762,0,0,1-.843,2.026,2.762,2.762,0,0,1-2.026.843A2.762,2.762,0,0,1,40.843-713.671Zm7.584,1.022a4.15,4.15,0,0,1-1.255-3.048,4.15,4.15,0,0,1,1.255-3.048A4.15,4.15,0,0,1,51.475-720a4.15,4.15,0,0,1,3.048,1.255,4.15,4.15,0,0,1,1.255,3.048,4.15,4.15,0,0,1-1.255,3.048,4.15,4.15,0,0,1-3.048,1.255A4.15,4.15,0,0,1,48.427-712.649Zm5.074-1.022a2.762,2.762,0,0,0,.843-2.026,2.762,2.762,0,0,0-.843-2.026,2.762,2.762,0,0,0-2.026-.843,2.762,2.762,0,0,0-2.026.843,2.762,2.762,0,0,0-.843,2.026,2.762,2.762,0,0,0,.843,2.026,2.762,2.762,0,0,0,2.026.843A2.762,2.762,0,0,0,53.5-713.671Z" transform="translate(655 2789)" fill="#1f1f1f"/>
  </g>
</svg>
