<svg xmlns="http://www.w3.org/2000/svg" width="20" height="20" viewBox="0 0 20 20">
  <g id="colortrim" transform="translate(-665 -2063)">
    <rect id="사각형_2641" data-name="사각형 2641" width="20" height="20" transform="translate(665 2063)" fill="none"/>
    <path id="colorselec_icon" d="M100.068-836.07l-4.725-4.7a1.23,1.23,0,0,1-.253-.355A.952.952,0,0,1,95-841.54a1.082,1.082,0,0,1,.091-.433,1.165,1.165,0,0,1,.253-.373l4.462-4.462-1.939-1.941a.67.67,0,0,1-.212-.514.74.74,0,0,1,.233-.514A.7.7,0,0,1,98.4-850a.7.7,0,0,1,.515.225l7.41,7.431a1.053,1.053,0,0,1,.242.364,1.117,1.117,0,0,1,.081.422,1.141,1.141,0,0,1-.081.424,1.054,1.054,0,0,1-.242.364l-4.7,4.7a1.193,1.193,0,0,1-.363.254,1.018,1.018,0,0,1-.424.089,1.38,1.38,0,0,1-.414-.1A1.091,1.091,0,0,1,100.068-836.07Zm.767-9.71-4.22,4.219v0h8.44v0Zm7.935,10.033a1.728,1.728,0,0,1-1.262-.505,1.684,1.684,0,0,1-.515-1.251,2.113,2.113,0,0,1,.222-.939,5.3,5.3,0,0,1,.525-.858l.606-.748a.5.5,0,0,1,.424-.22.5.5,0,0,1,.424.22l.586.748a7.212,7.212,0,0,1,.515.858,2.038,2.038,0,0,1,.232.939,1.685,1.685,0,0,1-.515,1.251A1.705,1.705,0,0,1,108.771-835.746Z" transform="translate(573 2915.002)" fill="#000004"/>
  </g>
</svg>
