<svg xmlns="http://www.w3.org/2000/svg" width="11.861" height="8.897" viewBox="0 0 11.861 8.897">
  <path id="패스_8091" data-name="패스 8091" d="M101.471-761.463a1.155,1.155,0,0,0,.915.023.942.942,0,0,0,.591-.659q.3-1.017.57-2.073t.515-2.126a.29.29,0,0,0-.176-.364.287.287,0,0,0-.4.1q-.664.9-1.29,1.784t-1.212,1.753a.929.929,0,0,0-.085.857A1.123,1.123,0,0,0,101.471-761.463Zm-3.989,2.317a1,1,0,0,1-.525-.139,1.245,1.245,0,0,1-.4-.4,4.136,4.136,0,0,1-.417-1.081A6.013,6.013,0,0,1,96-762.142a5.71,5.71,0,0,1,.579-2.566,5.924,5.924,0,0,1,1.583-1.99,6.015,6.015,0,0,1,1.807-1.012,5.839,5.839,0,0,1,2.039-.332.451.451,0,0,1,.363.18.5.5,0,0,1,.116.4.609.609,0,0,1-.2.376.557.557,0,0,1-.386.154,4.841,4.841,0,0,0-1.591.293,4.816,4.816,0,0,0-1.405.812,4.984,4.984,0,0,0-1.313,1.652,4.577,4.577,0,0,0-.479,2.062,4.528,4.528,0,0,0,.085.965,7.406,7.406,0,0,0,.27.888h8.911a5.543,5.543,0,0,0,.286-.934,4.688,4.688,0,0,0,.085-.919,4.589,4.589,0,0,0-.347-1.768,4.941,4.941,0,0,0-.95-1.49.651.651,0,0,1-.193-.409.542.542,0,0,1,.139-.425.557.557,0,0,1,.394-.2.5.5,0,0,1,.4.154,6.1,6.1,0,0,1,1.22,1.853,5.688,5.688,0,0,1,.448,2.255,6.354,6.354,0,0,1-.131,1.375,3.672,3.672,0,0,1-.425,1.081,1.092,1.092,0,0,1-.394.4,1.042,1.042,0,0,1-.533.139ZM101.946-762.466Z" transform="translate(-96 768.043)" fill="#0067b9"/>
</svg>
