<svg xmlns="http://www.w3.org/2000/svg" width="21.743" height="16.307" viewBox="0 0 21.743 16.307">
  <path id="trim_icon" d="M5.095,17.666H11.2a1,1,0,0,0,.73-.293.979.979,0,0,0,.3-.726V12.91a1,1,0,0,0-1.018-1.019H5.1a1,1,0,0,0-.73.293.979.979,0,0,0-.3.726v3.737a1,1,0,0,0,1.018,1.019Zm0-7.814H11.2a1,1,0,0,0,.73-.293.979.979,0,0,0,.3-.726V5.1a1,1,0,0,0-1.018-1.019H5.1a1,1,0,0,0-.73.293.979.979,0,0,0-.3.726V8.833A1,1,0,0,0,5.095,9.852ZM16.307,19.7a2.045,2.045,0,0,1-2.04,2.038H2.03a1.95,1.95,0,0,1-1.436-.6A1.97,1.97,0,0,1,0,19.7V2.038A1.962,1.962,0,0,1,.6.6,1.965,1.965,0,0,1,2.04,0H14.277a1.95,1.95,0,0,1,1.436.6,1.97,1.97,0,0,1,.595,1.44Zm-2.038,0V2.038H2.038V19.7Zm0-17.666h0Z" transform="translate(21.743) rotate(90)" fill="#0048f1"/>
</svg>
