<svg xmlns="http://www.w3.org/2000/svg" width="10.061" height="9.532" viewBox="0 0 10.061 9.532">
  <path id="패스_8089" data-name="패스 8089" d="M121.059-831.528v0Zm0,1.059a1.02,1.02,0,0,1-.748-.311,1.02,1.02,0,0,1-.311-.748v-7.413a1.02,1.02,0,0,1,.311-.748,1.02,1.02,0,0,1,.748-.311h7.413a1.02,1.02,0,0,1,.748.311,1.02,1.02,0,0,1,.311.748v1.324h-1.059v-1.324h-7.413v7.413h7.413v-1.324h1.059v1.324a1.02,1.02,0,0,1-.311.748,1.02,1.02,0,0,1-.748.311Zm4.236-2.118a1.02,1.02,0,0,1-.748-.311,1.02,1.02,0,0,1-.311-.748v-3.177a1.02,1.02,0,0,1,.311-.748,1.02,1.02,0,0,1,.748-.311H129a1.02,1.02,0,0,1,.748.311,1.02,1.02,0,0,1,.311.748v3.177a1.02,1.02,0,0,1-.311.748,1.019,1.019,0,0,1-.748.311ZM129-833.646v-3.177H125.3v3.177Zm-1.555-1.026a.766.766,0,0,0,.232-.563.766.766,0,0,0-.232-.563.766.766,0,0,0-.563-.232.766.766,0,0,0-.563.232.766.766,0,0,0-.232.563.766.766,0,0,0,.232.563.766.766,0,0,0,.563.232A.766.766,0,0,0,127.446-834.672Z" transform="translate(-120 840)" fill="#0067b9"/>
</svg>
