<svg xmlns="http://www.w3.org/2000/svg" width="11.819" height="9.526" viewBox="0 0 11.819 9.526">
  <path id="price_icon" d="M88.888-790.474a1.147,1.147,0,0,1-.841-.35,1.147,1.147,0,0,1-.35-.841v-5.508l-1.563-1.846a.539.539,0,0,1-.1-.186.68.68,0,0,1-.03-.2.6.6,0,0,1,.164-.417A.558.558,0,0,1,86.6-800H96.628a1.146,1.146,0,0,1,.841.35,1.147,1.147,0,0,1,.35.841v7.145a1.147,1.147,0,0,1-.35.841,1.147,1.147,0,0,1-.841.35Zm4.049-2.977h1.905a.576.576,0,0,0,.424-.171.576.576,0,0,0,.171-.424.576.576,0,0,0-.171-.424.576.576,0,0,0-.424-.171H91.522a.561.561,0,0,0-.558.365.543.543,0,0,0,.127.648l1.25,1.25a.564.564,0,0,0,.417.164.564.564,0,0,0,.417-.164.564.564,0,0,0,.164-.417.565.565,0,0,0-.164-.417Zm-.357-3.572H90.674a.576.576,0,0,0-.424.171.576.576,0,0,0-.171.424.576.576,0,0,0,.171.424.576.576,0,0,0,.424.171h3.319a.561.561,0,0,0,.558-.365.543.543,0,0,0-.127-.647l-1.25-1.25a.564.564,0,0,0-.417-.164.564.564,0,0,0-.417.164.565.565,0,0,0-.164.417.565.565,0,0,0,.164.417Z" transform="translate(-86 800)" fill="#0048f1"/>
</svg>
