<svg xmlns="http://www.w3.org/2000/svg" width="9.272" height="10.596" viewBox="0 0 9.272 10.596">
  <path id="패스_8090" data-name="패스 8090" d="M146.132-857.85a.473.473,0,0,1-.145-.352.487.487,0,0,1,.142-.355.473.473,0,0,1,.352-.145.488.488,0,0,1,.355.142.473.473,0,0,1,.145.352.487.487,0,0,1-.142.355.473.473,0,0,1-.352.145A.487.487,0,0,1,146.132-857.85Zm2.152,0a.473.473,0,0,1-.145-.352.487.487,0,0,1,.142-.355.473.473,0,0,1,.352-.145.488.488,0,0,1,.355.142.473.473,0,0,1,.145.352.487.487,0,0,1-.142.355.473.473,0,0,1-.352.145A.487.487,0,0,1,148.284-857.85Zm2.152,0a.473.473,0,0,1-.145-.352.487.487,0,0,1,.142-.355.473.473,0,0,1,.352-.145.488.488,0,0,1,.355.142.473.473,0,0,1,.145.352.487.487,0,0,1-.142.355.473.473,0,0,1-.352.145A.487.487,0,0,1,150.436-857.85Zm-5.443,4.447a.949.949,0,0,1-.7-.3.962.962,0,0,1-.292-.7v-7.285a.961.961,0,0,1,.292-.7.949.949,0,0,1,.7-.3h.993v-.828a.482.482,0,0,1,.142-.354.476.476,0,0,1,.352-.143.486.486,0,0,1,.355.143.477.477,0,0,1,.145.354v.828h3.311v-.828a.482.482,0,0,1,.142-.354.476.476,0,0,1,.352-.143.486.486,0,0,1,.355.143.477.477,0,0,1,.145.354v.828h.993a.949.949,0,0,1,.7.3.961.961,0,0,1,.292.7v7.285a.962.962,0,0,1-.292.7.949.949,0,0,1-.7.3Zm0-.993h7.285v-4.967h-7.285Zm0-5.96h7.285v-1.325h-7.285Zm0,0v0Z" transform="translate(-144 864)" fill="#0067b9"/>
</svg>
