<svg xmlns="http://www.w3.org/2000/svg" width="32" height="33.485" viewBox="0 0 32 33.485">
  <path id="nodata_big" d="M146.788-850.826l-2.386,2.344a1.636,1.636,0,0,1-1.151.481,1.558,1.558,0,0,1-1.193-.481,1.587,1.587,0,0,1-.46-1.172,1.588,1.588,0,0,1,.46-1.172l2.344-2.386-2.344-2.386a1.636,1.636,0,0,1-.481-1.151,1.558,1.558,0,0,1,.481-1.193,1.588,1.588,0,0,1,1.172-.46,1.588,1.588,0,0,1,1.172.46l2.386,2.344,2.386-2.344a1.636,1.636,0,0,1,1.151-.481,1.558,1.558,0,0,1,1.193.481,1.588,1.588,0,0,1,.46,1.172,1.588,1.588,0,0,1-.46,1.172l-2.344,2.386,2.344,2.386a1.636,1.636,0,0,1,.481,1.151,1.558,1.558,0,0,1-.481,1.193,1.588,1.588,0,0,1-1.172.46,1.588,1.588,0,0,1-1.172-.46Zm-21.765,4.311a4.844,4.844,0,0,1-3.558-1.465A4.844,4.844,0,0,1,120-851.538v-1.674a3.224,3.224,0,0,1,.984-2.365,3.225,3.225,0,0,1,2.365-.984h1.674v-20.091a3.224,3.224,0,0,1,.984-2.365,3.224,3.224,0,0,1,2.365-.984h18.417a3.224,3.224,0,0,1,2.365.984,3.224,3.224,0,0,1,.984,2.365v13.394a1.62,1.62,0,0,1-.481,1.193,1.62,1.62,0,0,1-1.193.481,1.62,1.62,0,0,1-1.193-.481,1.62,1.62,0,0,1-.481-1.193v-13.394H128.371v20.091h8.371a1.62,1.62,0,0,1,1.193.481,1.62,1.62,0,0,1,.481,1.193,1.62,1.62,0,0,1-.481,1.193,1.62,1.62,0,0,1-1.193.481H123.349v1.674a1.62,1.62,0,0,0,.481,1.193,1.62,1.62,0,0,0,1.193.481h11.72a1.62,1.62,0,0,1,1.193.481,1.62,1.62,0,0,1,.481,1.193,1.62,1.62,0,0,1-.481,1.193,1.62,1.62,0,0,1-1.193.481Zm13.185-3.349h0ZM131.72-868.28a1.62,1.62,0,0,1-1.193-.481,1.62,1.62,0,0,1-.481-1.193,1.62,1.62,0,0,1,.481-1.193,1.62,1.62,0,0,1,1.193-.481h11.72a1.62,1.62,0,0,1,1.193.481,1.62,1.62,0,0,1,.481,1.193,1.62,1.62,0,0,1-.481,1.193,1.62,1.62,0,0,1-1.193.481Zm0,5.023a1.62,1.62,0,0,1-1.193-.481,1.62,1.62,0,0,1-.481-1.193,1.62,1.62,0,0,1,.481-1.193,1.62,1.62,0,0,1,1.193-.481h11.72a1.62,1.62,0,0,1,1.193.481,1.62,1.62,0,0,1,.481,1.193,1.62,1.62,0,0,1-.481,1.193,1.62,1.62,0,0,1-1.193.481Z" transform="translate(-120 880)" fill="#fff" opacity="0.22"/>
</svg>
