<svg xmlns="http://www.w3.org/2000/svg" width="11.604" height="11.488" viewBox="0 0 11.604 11.488">
  <path id="location_icon" d="M91.077-860.56a.506.506,0,0,1-.462-.11.574.574,0,0,1-.2-.462.573.573,0,0,1,.139-.374.68.68,0,0,1,.344-.227,5.018,5.018,0,0,0,.711-.227,4.1,4.1,0,0,0,.667-.344.656.656,0,0,1,.418-.1.591.591,0,0,1,.374.169.573.573,0,0,1,.183.469.513.513,0,0,1-.256.41,5.448,5.448,0,0,1-.93.484A6.646,6.646,0,0,1,91.077-860.56Zm2.828-2.505a.583.583,0,0,1-.168-.366.587.587,0,0,1,.1-.4,5.99,5.99,0,0,0,.337-.659,4.119,4.119,0,0,0,.234-.718.7.7,0,0,1,.234-.352.584.584,0,0,1,.381-.146.565.565,0,0,1,.462.205.492.492,0,0,1,.1.469,6.005,6.005,0,0,1-.315,1,4.877,4.877,0,0,1-.491.9.516.516,0,0,1-.4.242A.563.563,0,0,1,93.9-863.065Zm1.1-3.809a.556.556,0,0,1-.374-.146.721.721,0,0,1-.227-.352,4.344,4.344,0,0,0-.234-.725,4.828,4.828,0,0,0-.337-.652.587.587,0,0,1-.1-.4.583.583,0,0,1,.168-.366.587.587,0,0,1,.462-.19.5.5,0,0,1,.4.234,5.01,5.01,0,0,1,.5.916,6.16,6.16,0,0,1,.322,1,.514.514,0,0,1-.117.469A.587.587,0,0,1,95-866.875Zm-6.4,6.3a5.889,5.889,0,0,1-3.3-2.051,5.61,5.61,0,0,1-1.3-3.663,5.708,5.708,0,0,1,1.289-3.692,5.682,5.682,0,0,1,3.3-2.036.506.506,0,0,1,.462.11.558.558,0,0,1,.2.447.573.573,0,0,1-.139.374.681.681,0,0,1-.344.227,4.591,4.591,0,0,0-2.579,1.656,4.563,4.563,0,0,0-1.011,2.916,4.475,4.475,0,0,0,1.011,2.894,4.788,4.788,0,0,0,2.579,1.663.664.664,0,0,1,.344.234.6.6,0,0,1,.139.381.545.545,0,0,1-.19.44A.5.5,0,0,1,88.6-860.574Zm3.721-9.684a5.779,5.779,0,0,0-.689-.359,4.281,4.281,0,0,0-.718-.242.722.722,0,0,1-.352-.227.556.556,0,0,1-.147-.374.558.558,0,0,1,.2-.447.506.506,0,0,1,.462-.11,6.924,6.924,0,0,1,1,.308,5.343,5.343,0,0,1,.938.484.513.513,0,0,1,.256.41.573.573,0,0,1-.183.469.612.612,0,0,1-.359.176A.594.594,0,0,1,92.322-870.259Zm-2.476,6.7a.713.713,0,0,1-.227-.036.46.46,0,0,1-.183-.11,8.458,8.458,0,0,1-1.45-1.67,2.76,2.76,0,0,1-.483-1.436,2.367,2.367,0,0,1,.667-1.714,2.237,2.237,0,0,1,1.678-.688,2.237,2.237,0,0,1,1.678.688,2.367,2.367,0,0,1,.667,1.714,2.76,2.76,0,0,1-.483,1.436,8.458,8.458,0,0,1-1.45,1.67.46.46,0,0,1-.183.11A.713.713,0,0,1,89.846-863.563Zm0-2.725a.608.608,0,0,0,.447-.183.608.608,0,0,0,.183-.447.608.608,0,0,0-.183-.447.608.608,0,0,0-.447-.183.608.608,0,0,0-.447.183.608.608,0,0,0-.183.447.608.608,0,0,0,.183.447A.608.608,0,0,0,89.846-866.288Z" transform="translate(-84 872.032)" fill="#0048f1"/>
</svg>
