<svg xmlns="http://www.w3.org/2000/svg" width="17.977" height="13.397" viewBox="0 0 17.977 13.397">
  <path id="trim_icon" d="M3.378,4.181l0,5.018a.939.939,0,0,0,.015.171.813.813,0,0,0,.045.157.79.79,0,0,0,.076.143.868.868,0,0,0,.106.129.854.854,0,0,0,.128.107.779.779,0,0,0,.143.076.806.806,0,0,0,.157.046.939.939,0,0,0,.172.015H7.3a.953.953,0,0,0,.172-.015.816.816,0,0,0,.157-.045.783.783,0,0,0,.143-.075.873.873,0,0,0,.234-.233.775.775,0,0,0,.076-.142.8.8,0,0,0,.045-.156.935.935,0,0,0,.015-.171V4.188a.937.937,0,0,0-.015-.171.811.811,0,0,0-.045-.157.788.788,0,0,0-.076-.143A.867.867,0,0,0,7.9,3.589a.853.853,0,0,0-.128-.107.778.778,0,0,0-.143-.076.806.806,0,0,0-.157-.046.939.939,0,0,0-.172-.015H4.22a.953.953,0,0,0-.172.015.816.816,0,0,0-.157.045.783.783,0,0,0-.143.075.87.87,0,0,0-.234.232.775.775,0,0,0-.076.142.8.8,0,0,0-.045.156A.934.934,0,0,0,3.378,4.181Zm6.453,0V9.2a.941.941,0,0,0,.015.171.813.813,0,0,0,.045.157.789.789,0,0,0,.076.143.867.867,0,0,0,.106.129.854.854,0,0,0,.128.107.779.779,0,0,0,.143.076.806.806,0,0,0,.157.046.939.939,0,0,0,.172.015h3.088a.953.953,0,0,0,.172-.015.815.815,0,0,0,.157-.045.782.782,0,0,0,.143-.075.872.872,0,0,0,.234-.233.774.774,0,0,0,.076-.142.8.8,0,0,0,.045-.156.935.935,0,0,0,.015-.171l0-5.018a.937.937,0,0,0-.015-.171.811.811,0,0,0-.045-.157.789.789,0,0,0-.076-.143.868.868,0,0,0-.106-.129.854.854,0,0,0-.128-.107.779.779,0,0,0-.143-.076.806.806,0,0,0-.157-.046.939.939,0,0,0-.172-.015H10.672a.953.953,0,0,0-.172.015.815.815,0,0,0-.157.045.782.782,0,0,0-.143.075.872.872,0,0,0-.234.232.772.772,0,0,0-.076.142.8.8,0,0,0-.045.156A.935.935,0,0,0,9.83,4.181ZM1.685,13.4a1.782,1.782,0,0,1-.335-.031,1.574,1.574,0,0,1-.595-.246,1.856,1.856,0,0,1-.476-.475,1.561,1.561,0,0,1-.247-.593A1.76,1.76,0,0,1,0,11.719L.014,1.666a1.75,1.75,0,0,1,.031-.332A1.546,1.546,0,0,1,.293.744,1.777,1.777,0,0,1,.509.488,1.8,1.8,0,0,1,.769.274,1.583,1.583,0,0,1,1.364.03,1.8,1.8,0,0,1,1.7,0H16.279a1.783,1.783,0,0,1,.335.031,1.577,1.577,0,0,1,.594.246,1.858,1.858,0,0,1,.476.473,1.559,1.559,0,0,1,.248.591,1.753,1.753,0,0,1,.031.333l.012,10.053a1.755,1.755,0,0,1-.031.333,1.548,1.548,0,0,1-.247.591,1.777,1.777,0,0,1-.216.257,1.8,1.8,0,0,1-.26.214,1.581,1.581,0,0,1-.595.245,1.8,1.8,0,0,1-.335.031Zm0-1.677h14.6L16.28,1.672H1.7Zm14.6,0L16.28,1.672Z" fill="#6d6d6d"/>
</svg>
