<svg xmlns="http://www.w3.org/2000/svg" width="48" height="48" viewBox="0 0 48 48">
  <g id="bt_car" transform="translate(-328 -490)">
    <rect id="사각형_1752" data-name="사각형 1752" width="48" height="48" transform="translate(328 490)" fill="none"/>
    <g id="그룹_4317" data-name="그룹 4317" transform="translate(43.829 -111.303)">
      <path id="패스_5939" data-name="패스 5939" d="M44.039-749.23a1.3,1.3,0,0,1-.959-.387,1.3,1.3,0,0,1-.387-.959,1.3,1.3,0,0,1,.387-.959,1.3,1.3,0,0,1,.959-.387h4.039a1.3,1.3,0,0,1,.959.387,1.3,1.3,0,0,1,.387.959,1.3,1.3,0,0,1-.387.959,1.3,1.3,0,0,1-.959.387Zm-2.693-4.039a1.3,1.3,0,0,1-.959-.387,1.3,1.3,0,0,1-.387-.959,1.3,1.3,0,0,1,.387-.959,1.3,1.3,0,0,1,.959-.387h4.039a1.3,1.3,0,0,1,.959.387,1.3,1.3,0,0,1,.387.959,1.3,1.3,0,0,1-.387.959,1.3,1.3,0,0,1-.959.387Zm2.693-4.039a1.3,1.3,0,0,1-.959-.387,1.3,1.3,0,0,1-.387-.959,1.3,1.3,0,0,1,.387-.959,1.3,1.3,0,0,1,.959-.387h4.039a1.3,1.3,0,0,1,.959.387,1.3,1.3,0,0,1,.387.959,1.3,1.3,0,0,1-.387.959,1.3,1.3,0,0,1-.959.387Z" transform="translate(249.885 1378.762)" fill="#0048f1"/>
      <path id="패스_5940" data-name="패스 5940" d="M48.845-781.885a3.915,3.915,0,0,1-2.457-.807,3.115,3.115,0,0,1-1.237-2.08,4.519,4.519,0,0,1-1.878-1.613,4.089,4.089,0,0,1-.689-2.293,4.125,4.125,0,0,1,.955-2.675,4.918,4.918,0,0,1,2.551-1.628,29.665,29.665,0,0,0,2.254-4.7,3.292,3.292,0,0,1,1.362-1.684A3.981,3.981,0,0,1,51.913-800H58.3a3.981,3.981,0,0,1,2.207.637,3.292,3.292,0,0,1,1.362,1.684l1.69,4.585a5.02,5.02,0,0,1,2.927,1.557,4.106,4.106,0,0,1,1.143,2.859,4.089,4.089,0,0,1-.689,2.293,4.52,4.52,0,0,1-1.878,1.613,3.115,3.115,0,0,1-1.237,2.08,3.915,3.915,0,0,1-2.457.807,3.84,3.84,0,0,1-2.144-.623,3.456,3.456,0,0,1-1.362-1.642h-5.51a3.456,3.456,0,0,1-1.362,1.642A3.84,3.84,0,0,1,48.845-781.885Zm.5-11.322h4.508v-4.529H51.913a1.253,1.253,0,0,0-.72.212,1.3,1.3,0,0,0-.47.58Zm7.012,0h4.508l-1.377-3.736a1.3,1.3,0,0,0-.47-.58,1.253,1.253,0,0,0-.72-.212H56.358Zm-6.621,8.732a1.044,1.044,0,0,0,.36-.807,1.044,1.044,0,0,0-.36-.807,1.281,1.281,0,0,0-.892-.325,1.281,1.281,0,0,0-.892.325,1.044,1.044,0,0,0-.36.807,1.044,1.044,0,0,0,.36.807,1.281,1.281,0,0,0,.892.325A1.281,1.281,0,0,0,49.737-784.474Zm12.522,0a1.044,1.044,0,0,0,.36-.807,1.044,1.044,0,0,0-.36-.807,1.281,1.281,0,0,0-.892-.325,1.281,1.281,0,0,0-.892.325,1.044,1.044,0,0,0-.36.807,1.044,1.044,0,0,0,.36.807,1.281,1.281,0,0,0,.892.325A1.281,1.281,0,0,0,62.259-784.474Z" transform="translate(259.751 1416.245)" fill="#0048f1"/>
    </g>
  </g>
</svg>
