<svg xmlns="http://www.w3.org/2000/svg" width="111.207" height="31.834" viewBox="0 0 111.207 31.834">
  <g id="live_logo" transform="translate(-263.75 -1062.083)">
    <g id="그룹_3591" data-name="그룹 3591" transform="translate(263.75 1062.083)">
      <path id="패스_5941" data-name="패스 5941" d="M501.384,221.993a5.916,5.916,0,1,1,5.037-9l8.552-5.236a15.926,15.926,0,1,0,0,16.633l-8.552-5.236a5.881,5.881,0,0,1-5.037,2.845" transform="translate(-485.458 -200.16)" fill="#0048f1"/>
      <path id="패스_5942" data-name="패스 5942" d="M616.224,257.215a4.258,4.258,0,1,1-4.259-4.259,4.258,4.258,0,0,1,4.259,4.259" transform="translate(-580.712 -241.298)" fill="#2dbcff"/>
    </g>
    <path id="패스_7581" data-name="패스 7581" d="M1.531,0H16.688V-4.812H7.469V-22.625H1.531ZM25.188-22.625H19.25V0h5.938Zm8.938,0H27.406L34.938,0h8.094l7.5-22.625H43.813L39.063-6.5h-.187ZM52.781,0H68.906V-4.812H58.719V-8.906h9.375v-4.812H58.719v-4.094H68.938v-4.812H52.781Z" transform="translate(306.019 1089)" fill="#2dbcff"/>
  </g>
</svg>
