<svg xmlns="http://www.w3.org/2000/svg" width="110" height="100" viewBox="0 0 110 100">
  <g id="live_icon" transform="translate(-1248.491 -4413.148)">
    <path id="패스_7543" data-name="패스 7543" d="M535.751,268.743a18.583,18.583,0,1,1,15.905-28.286l27.007-16.449a50.03,50.03,0,1,0,0,52.248l-27.007-16.448a18.592,18.592,0,0,1-15.905,8.936" transform="translate(763.033 4212.988)" fill="#fff"/>
    <path id="패스_7546" data-name="패스 7546" d="M17.413,3.706a7.154,7.154,0,0,1,12.537,0L46.467,33.737a7.154,7.154,0,0,1-6.269,10.6H7.164A7.154,7.154,0,0,1,.9,33.737Z" transform="translate(1358.491 4439.467) rotate(90)" fill="#0048f1"/>
  </g>
</svg>
